<?xml version="1.0" encoding="utf-8"?>
<!-- Generator: Adobe Illustrator 25.4.1, SVG Export Plug-In . SVG Version: 6.00 Build 0)  -->
<svg version="1.1" id="Layer_1" xmlns="http://www.w3.org/2000/svg" xmlns:xlink="http://www.w3.org/1999/xlink" x="0px" y="0px"
	 viewBox="0 0 1000 1000" style="enable-background:new 0 0 1000 1000;" xml:space="preserve">
<style type="text/css">
	.st0{fill:#FFFFFF;}
	.st1{fill:#010101;}
</style>
<path class="st1" d="M601.15,377.87c-51.02,0-79.26,32.88-79.26,68.05c0,31.51,17.77,51.15,43.73,51.15
	c20.5,0,33.25-9.59,39.17-31.51l30.06,6.85c-8.2,35.17-34.62,56.18-69.24,56.18c-44.64,0-75.16-36.08-75.16-82.67
	c0-53.44,44.18-100.48,110.69-100.48c74.25,0,123.9,58,123.9,134.73c0,78.56-65.14,154.37-156.24,154.37
	c-68.33,0-115.7-34.65-169.91-34.65c-50.11,0-72.88,10.9-120.26,30.08l-23.69-26.49l103.4-203.7c22.32-9.13,59.67-15.99,96.11-15.53
	l-15.03,31.97c-20.5,0.46-41.91,3.65-59.67,9.13l-82.45,165.79c31.43-12.79,58.31-22.32,101.58-22.32
	c72.88,0,96.11,34.19,169.91,34.19c72.43,0,125.72-61.2,125.72-122.86C694.53,421.72,659.91,377.87,601.15,377.87z"/>
</svg>
