<?xml version="1.0" encoding="utf-8"?>
<!-- Generator: Adobe Illustrator 25.4.1, SVG Export Plug-In . SVG Version: 6.00 Build 0)  -->
<svg version="1.1" id="Layer_1" xmlns="http://www.w3.org/2000/svg" xmlns:xlink="http://www.w3.org/1999/xlink" x="0px" y="0px"
	 viewBox="0 0 1920 1080" style="enable-background:new 0 0 1920 1080;" xml:space="preserve">
<style type="text/css">
	.st0{fill:#FFFFFF;}
</style>
<path d="M422.57,499.92c28.67,0,53.45-10.88,53.45-46.87c0-31.73-21.73-44.45-53.45-44.45h-44.69v91.31H422.57z M377.88,574.3
	c0,20.25,5.13,23.88,19.92,31.75v2.42h-66.13v-2.42c14.19-7.86,19.02-11.48,19.02-31.75V430.98c0-20.25-4.83-23.88-19.02-31.73
	v-2.42h95.43c43.79,0,79.12,14.81,79.12,55.94c0,37.49-31.39,52.61-62.51,52.91v1.21c26.86,3.32,39.86,16.32,47.11,38.4l8.75,25.39
	c6.94,21.46,16.6,28.12,34.41,35.38v2.42h-48.29c-5.73-12.39-7.55-17.83-13.28-32.66l-9.66-28.71c-8.15-23.57-16.3-35.08-45.3-35.08
	h-39.56L377.88,574.3z"/>
<path d="M569.04,552.17c0,20.91,8.49,40.62,32.45,40.62c23.96,0,42.78-20.3,42.78-56.08v-47.59c0-16.97-8.79-22.72-20.93-30.3V457
	h48.25v117.6c0,20.6,4.25,23.33,17.59,31.83v2.12h-44.9v-38.2c-8.49,26.68-27.29,41.23-53.7,41.23c-31.24,0-48.55-20.6-48.55-53.66
	v-68.81c0-16.97-9.1-22.72-20.93-30.3V457h47.94L569.04,552.17z"/>
<path d="M693.48,534.48c0,48.96,29.07,76.76,67.54,76.76c28.77,0,48.76-18.43,56.03-40.5l0.3,36.87c0,39.29-13.33,61.95-44.52,61.95
	c-22.41,0-45.13-16.32-49.67-46.54l-29.38,7.86c9.09,40.19,42.1,52.28,72.08,52.28c48.76,0,78.14-26.59,78.44-75.55V523.3
	c0-27.5,0-51.07,4.24-69.21h-3.94c-10.9,6.04-20.29,17.23-23.93,30.83c-7.27-16.02-27.86-30.83-55.73-30.83
	C726.19,454.1,693.48,485.53,693.48,534.48z M723.16,534.48c0-40.8,19.08-65.28,47.85-65.28c21.2,0,46.04,15.11,46.04,48.66v20.55
	c0,29.62-18.47,55.91-46.64,55.91C740.73,594.32,723.16,570.75,723.16,534.48z"/>
<path d="M865.29,534.48c0,48.96,29.07,76.76,67.54,76.76c28.77,0,48.76-18.43,56.03-40.5l0.3,36.87c0,39.29-13.33,61.95-44.52,61.95
	c-22.41,0-45.13-16.32-49.67-46.54l-29.38,7.86c9.09,40.19,42.1,52.28,72.08,52.28c48.76,0,78.14-26.59,78.44-75.55V523.3
	c0-27.5,0-51.07,4.24-69.21h-3.94c-10.9,6.04-20.29,17.23-23.93,30.83c-7.27-16.02-27.86-30.83-55.73-30.83
	C897.99,454.1,865.29,485.53,865.29,534.48z M894.97,534.48c0-40.8,19.08-65.28,47.85-65.28c21.2,0,46.04,15.11,46.04,48.66v20.55
	c0,29.62-18.47,55.91-46.64,55.91C912.53,594.32,894.97,570.75,894.97,534.48z"/>
<path d="M1161.69,517.88c0-33.65-24.93-48.82-46.23-48.82c-28.88,0-48.06,24.55-48.06,65.5c0,36.37,17.63,60.04,47.45,60.04
	c28.27,0,46.84-26.37,46.84-56.1V517.88z M1189.35,453.89h3.95c-4.26,18.19-4.26,41.85-4.26,69.45v51.25
	c0,20.61,4.26,23.34,17.63,31.84v2.12h-44.7l-0.3-37.6c-7.3,22.13-27.36,40.64-56.27,40.64c-38.63,0-67.83-27.9-67.83-77.03
	s32.83-80.67,71.78-80.67c27.97,0,48.67,14.85,55.97,30.93C1168.98,471.18,1178.41,459.95,1189.35,453.89z"/>
<path d="M1250.48,548.06c0,32.65,24.7,48.09,45.51,48.09c28.62,0,47.92-24.19,47.92-65.64c0-35.69-17.77-59.29-47.01-59.29
	c-27.71,0-46.41,26.61-46.41,56.26V548.06z M1223.06,611.59h-3.61c3.92-18.14,3.92-41.75,3.92-68.67V429.48
	c0-16.93-8.74-22.68-21.09-29.93v-2.72h48.22v97.99c7.23-22.37,27.11-40.54,55.76-40.54c37.97,0,67.21,27.83,67.21,76.23
	c0,49.61-32.53,81.07-71.43,81.07c-27.71,0-47.62-14.82-55.45-31.16C1243.26,594.34,1233.91,605.54,1223.06,611.59z"/>
<path d="M1424.7,575.51c0,19.95,4.25,22.67,17.29,30.84v2.12H1381v-2.12c13.04-8.16,17.29-10.88,17.29-30.84V428.26
	c0-16.62-9.1-22.06-20.63-29.32v-2.12h47.04L1424.7,575.51z"/>
<path d="M1559.08,518.18c-0.6-26.37-8.44-51.85-38-51.85c-24.41,0-39.2,20.91-41.91,51.85H1559.08z M1588.33,530h-109.77
	c0,40.03,19.29,64.89,52.17,64.89c23.51,0,40.41-11.52,49.75-35.46l6.33,2.12c-6.93,31.82-29.54,50.03-64.23,50.03
	c-40.41,0-73.28-27.9-73.28-77.02s32.27-80.68,72.08-80.68C1563.91,453.89,1588.33,482.09,1588.33,530z"/>
</svg>
